<svg width="20" height="20" viewBox="0 0 20 20" fill="none" xmlns="http://www.w3.org/2000/svg">
<path fill-rule="evenodd" clip-rule="evenodd" d="M15.3122 11.4243C14.526 14.3584 11.5102 16.0996 8.57612 15.3134C7.6071 15.0537 6.77006 14.5521 6.11034 13.8912L5.7988 13.5796L8.23203 13.5792C8.64624 13.5791 8.98197 13.2433 8.98189 12.829C8.98182 12.4148 8.64597 12.0791 8.23176 12.0792L3.98833 12.0799C3.78941 12.08 3.59866 12.159 3.45803 12.2997C3.3174 12.4404 3.23842 12.6312 3.23846 12.8301L3.23935 17.0719C3.23944 17.4861 3.5753 17.8219 3.98951 17.8218C4.40372 17.8217 4.73944 17.4858 4.73935 17.0716L4.73884 14.641L5.04869 14.9508C5.88973 15.7934 6.95741 16.4326 8.18789 16.7623C11.9222 17.7629 15.7605 15.5468 16.7611 11.8125C16.8683 11.4124 16.6309 11.0012 16.2308 10.894C15.8307 10.7868 15.4194 11.0242 15.3122 11.4243ZM16.5411 7.70192C16.6818 7.56124 16.7608 7.37045 16.7608 7.17151L16.7601 2.92956C16.76 2.51535 16.4242 2.17962 16.0099 2.17969C15.5957 2.17976 15.26 2.5156 15.2601 2.92981L15.2605 5.36068L14.9507 5.05086C14.1097 4.20845 13.0417 3.569 11.8114 3.23932C8.0771 2.23873 4.23874 4.45481 3.23814 8.18907C3.13094 8.58917 3.36837 9.00042 3.76847 9.10763C4.16857 9.21483 4.57983 8.9774 4.68703 8.5773C5.47321 5.64323 8.48907 3.90203 11.4231 4.68821C12.3922 4.94787 13.2293 5.44954 13.889 6.11052L14.2001 6.42164L11.7681 6.42164C11.3539 6.42164 11.0181 6.75742 11.0181 7.17164C11.0181 7.58585 11.3539 7.92164 11.7681 7.92164H16.0108C16.2097 7.92164 16.4005 7.8426 16.5411 7.70192Z" fill="black"/>
</svg>
