<svg width="16" height="16" viewBox="0 0 16 16" fill="none" xmlns="http://www.w3.org/2000/svg">
<path d="M7.076 8.916C6.824 7.032 9.38 6.612 9.38 5.448C9.38 4.716 8.804 4.308 7.856 4.308C7.124 4.308 6.524 4.644 5.936 5.256L4.952 4.356C5.72 3.468 6.776 2.88 8.06 2.88C9.8 2.88 11.072 3.696 11.072 5.292C11.072 7.044 8.444 7.26 8.636 8.916H7.076ZM7.868 12.12C7.244 12.12 6.8 11.676 6.8 11.052C6.8 10.428 7.256 9.996 7.868 9.996C8.468 9.996 8.924 10.428 8.924 11.052C8.924 11.676 8.468 12.12 7.868 12.12Z" fill="black"/>
</svg>
